# xmcd CD database file
#
# Track frame offsets:
#	150
#	22026
#	43129
#	62916
#	79297
#	101249
#	121296
#
# Disc length: 1925 seconds
#
# Revision: 0
# Processed by: cddbd v1.5.2PL0 Copyright (c) Steve Scherf et al.
# Submitted via: CDex 1.51
#
DISCID=61078307
DTITLE=Gilbert Leroux - Live au Festival de Samois sur Seine
DYEAR=1900
DGENRE=Jazz
TTITLE0=Blues my naughty sweetie gives to me
TTITLE1=Rosetta
TTITLE2=Please don't talk about me when I'm gone
TTITLE3=What a wonderful world
TTITLE4=Somebody stole my gal
TTITLE5=Dinah
TTITLE6=I got rhythm
EXTD=
EXTT0=
EXTT1=
EXTT2=
EXTT3=
EXTT4=
EXTT5=
EXTT6=
PLAYORDER=
